<?xml version="1.0" encoding="utf-8"?>
<!-- Generator: Adobe Illustrator 23.0.2, SVG Export Plug-In . SVG Version: 6.00 Build 0)  -->
<svg version="1.1" id="Layer_1" xmlns="http://www.w3.org/2000/svg" xmlns:xlink="http://www.w3.org/1999/xlink" x="0px" y="0px"
	 viewBox="0 0 1024 1024" style="enable-background:new 0 0 1024 1024;" xml:space="preserve">
<g>
	<path d="M656.5,371.5c-7.17,0-13-5.83-13-13v-228c0-7.17,5.83-13,13-13s13,5.83,13,13v228C669.5,365.67,663.67,371.5,656.5,371.5z"
		/>
	<path d="M656.5,101c-16.29,0-29.5,13.21-29.5,29.5v228c0,16.29,13.21,29.5,29.5,29.5s29.5-13.21,29.5-29.5v-228
		C686,114.21,672.79,101,656.5,101L656.5,101z"/>
</g>
<g>
	<path d="M758.39,370.89c-3.47,0-6.74-1.35-9.19-3.81l-90.05-90.05c-5.07-5.07-5.07-13.32,0-18.38c2.46-2.46,5.72-3.81,9.19-3.81
		s6.74,1.35,9.19,3.81l90.05,90.05c5.07,5.07,5.07,13.32,0,18.38C765.13,369.54,761.86,370.89,758.39,370.89z"/>
	<path d="M668.34,238.34c-7.55,0-15.1,2.88-20.86,8.64h0c-11.52,11.52-11.52,30.2,0,41.72l90.05,90.05
		c5.76,5.76,13.31,8.64,20.86,8.64c7.55,0,15.1-2.88,20.86-8.64v0c11.52-11.52,11.52-30.2,0-41.72l-90.05-90.05
		C683.44,241.22,675.89,238.34,668.34,238.34L668.34,238.34z"/>
</g>
<g>
	<path d="M668.34,296.89c-3.47,0-6.74-1.35-9.19-3.81c-2.46-2.46-3.81-5.72-3.81-9.19c0-3.47,1.35-6.74,3.81-9.19l90.41-90.41
		c2.46-2.46,5.72-3.81,9.19-3.81c3.47,0,6.74,1.35,9.19,3.81c2.46,2.46,3.81,5.72,3.81,9.19c0,3.47-1.35,6.74-3.81,9.19
		l-90.41,90.41C675.08,295.54,671.82,296.89,668.34,296.89z"/>
	<path d="M758.76,163.98c-7.55,0-15.1,2.88-20.86,8.64l-90.41,90.41c-11.52,11.52-11.52,30.2,0,41.72l0,0
		c5.76,5.76,13.31,8.64,20.86,8.64s15.1-2.88,20.86-8.64l90.41-90.41c11.52-11.52,11.52-30.2,0-41.72v0
		C773.86,166.86,766.31,163.98,758.76,163.98L758.76,163.98z"/>
</g>
<g>
	<path d="M475,222c29.78,0,54,24.22,54,54s-24.22,54-54,54s-54-24.22-54-54S445.22,222,475,222 M475,163c-62.41,0-113,50.59-113,113
		s50.59,113,113,113s113-50.59,113-113S537.41,163,475,163L475,163z"/>
</g>
<g>
	<path d="M418.23,134.5c-9.1,0-16.5-7.4-16.5-16.5s7.4-16.5,16.5-16.5H531c9.1,0,16.5,7.4,16.5,16.5s-7.4,16.5-16.5,16.5H418.23z"/>
	<path d="M531,102c8.82,0,16,7.18,16,16c0,8.82-7.18,16-16,16H418.23c-8.82,0-16-7.18-16-16c0-8.82,7.18-16,16-16H531 M531,101
		H418.23c-9.39,0-17,7.61-17,17v0c0,9.39,7.61,17,17,17H531c9.39,0,17-7.61,17-17v0C548,108.61,540.39,101,531,101L531,101z"/>
</g>
<g>
	<path d="M127.5,562.5c-9.93,0-18-8.08-18-18v-255c0-9.93,8.07-18,18-18s18,8.07,18,18v255C145.5,554.42,137.43,562.5,127.5,562.5z"
		/>
	<path d="M127.5,283c3.58,0,6.5,2.92,6.5,6.5v255c0,3.58-2.92,6.5-6.5,6.5c-3.58,0-6.5-2.92-6.5-6.5v-255
		C121,285.92,123.92,283,127.5,283 M127.5,260c-16.29,0-29.5,13.21-29.5,29.5v255c0,16.29,13.21,29.5,29.5,29.5
		s29.5-13.21,29.5-29.5v-255C157,273.21,143.79,260,127.5,260L127.5,260z"/>
</g>
<g>
	<path d="M210,222c29.78,0,54,24.22,54,54s-24.22,54-54,54s-54-24.22-54-54S180.22,222,210,222 M210,163c-62.41,0-113,50.59-113,113
		s50.59,113,113,113s113-50.59,113-113S272.41,163,210,163L210,163z"/>
</g>
</svg>
